<svg xmlns="http://www.w3.org/2000/svg" width="760" height="440" viewBox="0 0 760 440" font-family="'Hiragino Sans','Yu Gothic','Meiryo','Noto Sans JP',sans-serif">
  <rect x="0" y="0" width="760" height="440" rx="12" fill="#FFFFFF"/>

  <rect x="30" y="12" width="190" height="40" rx="6" fill="#F1EFE8" stroke="#5F5E5A"/>
  <text x="125" y="37" font-size="14" fill="#2C2C2A" text-anchor="middle">車の USB-A</text>
  <line x1="125" y1="52" x2="125" y2="80" stroke="#E24B4A" stroke-width="4"/>
  <text x="135" y="71" font-size="12" fill="#5F5E5A">A→C ケーブル</text>

  <rect x="30" y="80" width="190" height="250" rx="6" fill="#EEEDFE" stroke="#534AB7" stroke-width="1.5"/>
  <text x="125" y="106" font-size="15" font-weight="bold" fill="#26215C" text-anchor="middle">ATOM Lite</text>
  <text x="208" y="145" font-size="14" fill="#26215C" text-anchor="end">5V（右）</text>
  <text x="208" y="180" font-size="14" fill="#26215C" text-anchor="end">3V3（左の一番上）</text>
  <text x="208" y="215" font-size="14" fill="#26215C" text-anchor="end">G（右）</text>
  <text x="208" y="265" font-size="14" fill="#26215C" text-anchor="end">G21（右）</text>
  <text x="208" y="305" font-size="14" fill="#26215C" text-anchor="end">G25（右）</text>

  <rect x="290" y="80" width="160" height="250" rx="6" fill="#E1F5EE" stroke="#0F6E56" stroke-width="1.5"/>
  <text x="370" y="106" font-size="15" font-weight="bold" fill="#04342C" text-anchor="middle">レベル変換</text>
  <text x="302" y="145" font-size="14" fill="#04342C">HV</text>
  <text x="302" y="180" font-size="14" fill="#04342C">LV</text>
  <text x="302" y="215" font-size="14" fill="#04342C">GND</text>
  <text x="302" y="265" font-size="14" fill="#04342C">LV1</text>
  <text x="302" y="305" font-size="14" fill="#04342C">LV2</text>
  <text x="438" y="265" font-size="14" fill="#04342C" text-anchor="end">HV1</text>
  <text x="438" y="305" font-size="14" fill="#04342C" text-anchor="end">HV2</text>
  <line x1="338" y1="260" x2="400" y2="260" stroke="#0F6E56" stroke-width="1.5" stroke-dasharray="4 3"/>
  <line x1="338" y1="300" x2="400" y2="300" stroke="#0F6E56" stroke-width="1.5" stroke-dasharray="4 3"/>

  <line x1="220" y1="140" x2="290" y2="140" stroke="#E24B4A" stroke-width="4"/>
  <line x1="220" y1="175" x2="290" y2="175" stroke="#EF9F27" stroke-width="4"/>
  <line x1="220" y1="210" x2="290" y2="210" stroke="#2C2C2A" stroke-width="4"/>
  <line x1="220" y1="260" x2="290" y2="260" stroke="#3B6D11" stroke-width="5"/>
  <line x1="220" y1="300" x2="290" y2="300" stroke="#5F5E5A" stroke-width="7"/>
  <line x1="221" y1="300" x2="289" y2="300" stroke="#FFFFFF" stroke-width="4"/>

  <text x="645" y="226" font-size="14" font-weight="bold" fill="#2C2C2A" text-anchor="middle">①の3ピンカプラー</text>
  <rect x="560" y="235" width="170" height="90" rx="6" fill="#F1EFE8" stroke="#5F5E5A" stroke-width="1.5"/>
  <text x="578" y="265" font-size="14" fill="#2C2C2A">緑 TXD</text>
  <text x="578" y="305" font-size="14" fill="#2C2C2A">白 RXD</text>
  <line x1="450" y1="260" x2="560" y2="260" stroke="#3B6D11" stroke-width="5"/>
  <line x1="450" y1="300" x2="560" y2="300" stroke="#5F5E5A" stroke-width="7"/>
  <line x1="451" y1="300" x2="559" y2="300" stroke="#FFFFFF" stroke-width="4"/>

  <line x1="30" y1="372" x2="56" y2="372" stroke="#E24B4A" stroke-width="4"/>
  <text x="62" y="377" font-size="12" fill="#2C2C2A">5V</text>
  <line x1="100" y1="372" x2="126" y2="372" stroke="#EF9F27" stroke-width="4"/>
  <text x="132" y="377" font-size="12" fill="#2C2C2A">3.3V</text>
  <line x1="180" y1="372" x2="206" y2="372" stroke="#2C2C2A" stroke-width="4"/>
  <text x="212" y="377" font-size="12" fill="#2C2C2A">GND</text>
  <line x1="262" y1="372" x2="288" y2="372" stroke="#3B6D11" stroke-width="5"/>
  <text x="294" y="377" font-size="12" fill="#2C2C2A">G21 → 緑</text>
  <line x1="390" y1="372" x2="416" y2="372" stroke="#5F5E5A" stroke-width="7"/>
  <line x1="391" y1="372" x2="415" y2="372" stroke="#FFFFFF" stroke-width="4"/>
  <text x="422" y="377" font-size="12" fill="#2C2C2A">G25 ← 白</text>
  <text x="30" y="408" font-size="12" fill="#5F5E5A">点線はモジュールの中でつながっていることを表します。①の黒（GND）にはつなぎません。</text>
</svg>
